<?xml version="1.0" standalone="no"?>
<!DOCTYPE svg PUBLIC "-//W3C//DTD SVG 20010904//EN"
 "http://www.w3.org/TR/2001/REC-SVG-20010904/DTD/svg10.dtd">
<svg version="1.0" xmlns="http://www.w3.org/2000/svg"
 width="1212.000000pt" height="422.000000pt" viewBox="0 0 1212.000000 422.000000"
 preserveAspectRatio="xMidYMid meet">

<g transform="translate(0.000000,422.000000) scale(0.100000,-0.100000)"
fill="#000000" stroke="none">
<path d="M575 4190 c-295 -4 -385 -8 -404 -19 -60 -34 -131 -136 -131 -187 0
-13 -4 -24 -10 -24 -6 0 -10 -37 -10 -90 0 -53 4 -90 10 -90 6 0 10 -13 10
-30 0 -16 5 -30 10 -30 6 0 10 -7 10 -15 0 -14 18 -53 30 -65 10 -10 41 -65
47 -82 3 -10 9 -18 14 -18 5 0 9 -9 9 -20 0 -11 4 -20 9 -20 5 0 11 -8 14 -17
6 -19 38 -75 48 -83 3 -3 12 -20 20 -37 8 -18 16 -33 20 -33 3 0 11 -16 19
-35 8 -19 17 -35 22 -35 4 0 8 -7 8 -15 0 -8 4 -15 8 -15 5 0 14 -16 22 -35 8
-19 17 -35 20 -35 3 0 12 -16 20 -35 8 -19 17 -35 22 -35 4 0 8 -7 8 -15 0 -8
4 -15 8 -15 5 0 14 -16 22 -35 8 -19 17 -35 20 -35 3 0 12 -16 20 -35 8 -19
16 -35 19 -35 4 0 12 -15 20 -32 8 -18 17 -35 20 -38 10 -8 42 -64 48 -82 3
-10 9 -18 14 -18 5 0 9 -9 9 -20 0 -11 5 -20 10 -20 6 0 10 -7 10 -15 0 -8 5
-15 10 -15 6 0 10 -7 10 -15 0 -8 5 -15 10 -15 6 0 10 -9 10 -20 0 -11 4 -20
9 -20 5 0 11 -8 14 -17 6 -18 37 -73 47 -83 10 -10 41 -65 47 -82 3 -10 9 -18
14 -18 5 0 9 -9 9 -20 0 -11 4 -20 9 -20 5 0 11 -8 14 -17 6 -18 37 -73 47
-83 10 -10 41 -65 47 -82 3 -10 9 -18 14 -18 5 0 9 -9 9 -20 0 -11 4 -20 9
-20 5 0 14 -13 21 -30 7 -16 16 -30 21 -30 5 0 9 -9 9 -20 0 -11 4 -20 9 -20
5 0 11 -8 14 -17 6 -18 37 -73 47 -83 10 -10 41 -65 47 -82 3 -10 9 -18 14
-18 5 0 9 -9 9 -20 0 -11 4 -20 9 -20 5 0 11 -8 14 -17 6 -18 37 -73 47 -83
10 -10 41 -65 47 -82 3 -10 9 -18 14 -18 5 0 9 -7 9 -15 0 -9 9 -25 20 -37 11
-12 20 -28 20 -35 0 -7 5 -13 10 -13 6 0 10 -9 10 -20 0 -11 4 -20 9 -20 5 0
11 -8 14 -18 6 -17 37 -72 47 -82 3 -3 12 -18 20 -35 8 -16 17 -32 20 -35 3
-3 12 -18 20 -35 8 -16 17 -32 20 -35 5 -5 18 -27 44 -75 6 -11 13 -22 16 -25
3 -3 12 -18 20 -35 8 -16 17 -32 20 -35 3 -3 10 -14 16 -25 26 -48 39 -70 44
-75 3 -3 12 -18 20 -35 8 -16 17 -32 20 -35 3 -3 12 -18 20 -35 8 -16 17 -32
20 -35 10 -10 41 -65 47 -82 3 -10 9 -18 14 -18 5 0 9 -9 9 -20 0 -11 5 -20
10 -20 6 0 10 -6 10 -13 0 -7 9 -23 20 -35 11 -12 20 -28 20 -37 0 -8 4 -15 9
-15 5 0 11 -8 14 -18 6 -17 37 -72 47 -82 10 -10 41 -65 47 -82 3 -10 9 -18
14 -18 5 0 9 -9 9 -20 0 -11 4 -20 9 -20 5 0 11 -8 14 -17 6 -18 37 -73 47
-83 3 -3 11 -15 18 -28 6 -12 18 -32 25 -44 22 -39 96 -108 116 -108 11 0 23
-4 26 -10 8 -12 85 -13 85 -1 0 5 13 11 28 14 33 7 80 49 101 90 8 15 18 27
23 27 4 0 8 9 8 19 0 11 3 21 8 23 9 4 41 57 49 81 3 9 9 17 14 17 5 0 9 9 9
20 0 11 5 20 10 20 6 0 10 6 10 13 0 7 9 23 20 35 11 12 20 28 20 37 0 25 36
17 51 -12 8 -16 16 -30 19 -33 10 -10 41 -65 47 -82 3 -10 9 -18 14 -18 5 0 9
-9 9 -20 0 -11 5 -20 10 -20 6 0 10 -6 10 -13 0 -7 9 -23 20 -35 11 -12 20
-26 20 -32 0 -18 105 -120 123 -120 9 0 19 -4 22 -10 8 -13 82 -13 90 0 3 6
15 10 26 10 10 0 19 4 19 8 0 4 14 16 30 25 17 10 30 23 30 29 0 6 8 18 18 27
19 18 51 67 59 94 3 9 9 17 14 17 5 0 9 9 9 20 0 11 4 20 9 20 5 0 11 8 14 18
6 17 37 72 47 82 3 3 11 17 19 33 15 29 51 37 51 12 0 -9 9 -25 20 -37 11 -12
20 -28 20 -35 0 -7 5 -13 10 -13 6 0 10 -9 10 -19 0 -11 3 -21 8 -23 9 -4 41
-57 49 -80 3 -10 9 -18 14 -18 5 0 9 -9 9 -20 0 -11 4 -20 8 -20 4 0 16 -14
26 -30 27 -47 65 -80 97 -87 16 -3 29 -9 29 -14 0 -12 77 -11 85 1 3 6 15 10
26 10 22 0 97 71 118 113 8 15 18 27 23 27 4 0 8 9 8 19 0 11 3 21 8 23 9 4
41 57 49 81 3 9 9 17 14 17 5 0 9 9 9 20 0 11 5 20 10 20 6 0 10 6 10 13 0 7
9 23 20 35 11 12 20 28 20 37 0 8 4 15 9 15 5 0 11 8 14 18 6 17 37 72 47 82
10 10 41 65 47 83 3 9 9 17 14 17 5 0 9 9 9 20 0 11 5 20 10 20 6 0 10 6 10
13 0 7 9 23 20 35 11 12 20 28 20 37 0 8 4 15 8 15 5 0 14 16 22 35 8 19 17
35 20 35 3 0 12 16 20 35 8 19 17 35 22 35 4 0 8 7 8 15 0 8 4 15 8 15 5 0 14
16 22 35 8 19 17 35 20 35 3 0 12 16 20 35 8 19 17 35 22 35 4 0 8 7 8 15 0 8
4 15 8 15 5 0 14 16 22 35 8 19 17 35 20 35 3 0 12 16 20 35 8 19 17 35 22 35
4 0 8 7 8 15 0 8 5 15 10 15 6 0 10 9 10 20 0 11 4 20 9 20 5 0 11 8 14 18 6
17 37 72 47 82 10 10 41 65 47 83 3 9 9 17 14 17 5 0 9 9 9 20 0 11 4 20 9 20
5 0 11 8 14 18 6 17 37 72 47 82 5 5 18 27 44 75 6 11 13 22 16 25 3 3 17 26
30 53 14 26 28 47 32 47 5 0 8 9 8 19 0 11 3 21 7 23 10 4 42 57 50 81 3 9 9
17 14 17 5 0 9 7 9 15 0 9 9 25 20 37 11 12 20 28 20 35 0 7 5 13 10 13 6 0
10 9 10 20 0 11 4 20 9 20 5 0 11 8 14 18 6 17 37 72 47 82 10 10 41 65 47 83
3 9 9 17 14 17 5 0 9 9 9 20 0 11 5 20 10 20 6 0 10 6 10 13 0 7 9 23 20 35
11 12 20 28 20 37 0 8 4 15 9 15 5 0 11 8 14 18 6 17 37 72 47 82 10 10 41 65
47 83 3 9 9 17 14 17 5 0 9 9 9 20 0 11 5 20 10 20 6 0 10 6 10 13 0 7 9 23
20 35 11 12 20 28 20 37 0 8 4 15 8 15 5 0 14 16 22 35 8 19 17 35 20 35 3 0
12 16 20 35 8 19 17 35 22 35 4 0 8 7 8 15 0 8 4 15 8 15 5 0 14 16 22 35 8
19 17 35 20 35 3 0 12 16 20 35 8 19 17 35 21 35 4 0 9 8 12 18 6 18 38 74 48
82 3 3 12 20 20 38 8 17 17 32 21 32 5 0 8 6 8 14 0 8 3 16 8 18 6 3 36 55 66
115 6 13 14 23 19 23 4 0 7 9 7 20 0 11 5 20 10 20 6 0 10 7 10 15 0 8 5 15
10 15 6 0 10 7 10 15 0 8 5 15 10 15 6 0 10 9 10 19 0 11 3 21 8 23 13 6 52
90 52 114 0 13 5 24 10 24 13 0 13 167 0 175 -6 3 -10 19 -10 36 0 16 -4 29
-10 29 -5 0 -10 9 -10 20 0 11 -4 20 -10 20 -5 0 -10 7 -10 15 0 17 -52 71
-91 95 -20 12 -101 16 -459 21 -508 8 -4338 7 -4895 -1z m921 -322 c0 -86 3
-123 12 -126 7 -2 12 -10 12 -17 0 -12 39 -94 50 -105 10 -10 41 -65 47 -82 3
-10 9 -18 14 -18 5 0 9 -9 9 -20 0 -11 4 -20 8 -20 5 0 14 -16 22 -35 8 -19
17 -35 22 -35 4 0 8 -7 8 -15 0 -8 4 -15 8 -15 5 0 14 -16 22 -35 8 -19 17
-35 20 -35 3 0 12 -16 20 -35 8 -19 17 -35 22 -35 4 0 8 -7 8 -15 0 -8 4 -15
8 -15 5 0 14 -16 22 -35 8 -19 17 -35 20 -35 3 0 12 -16 20 -35 8 -19 17 -35
22 -35 4 0 8 -7 8 -15 0 -8 3 -15 8 -15 4 0 13 -15 21 -32 8 -18 17 -35 20
-38 3 -3 15 -23 27 -45 27 -52 48 -89 54 -95 10 -10 41 -65 47 -82 3 -10 9
-18 14 -18 5 0 9 -9 9 -20 0 -11 5 -20 10 -20 6 0 10 -7 10 -15 0 -8 5 -15 10
-15 6 0 10 -7 10 -15 0 -8 5 -15 10 -15 6 0 10 -9 10 -20 0 -11 4 -20 9 -20 5
0 11 -8 14 -17 6 -18 37 -73 47 -83 10 -10 41 -65 47 -82 3 -10 9 -18 14 -18
5 0 9 -9 9 -20 0 -11 4 -20 9 -20 5 0 11 -8 14 -17 6 -18 37 -73 47 -83 10
-10 41 -65 47 -83 3 -9 9 -17 14 -17 5 0 9 -9 9 -20 0 -11 4 -20 9 -20 5 0 14
-13 21 -30 7 -17 16 -30 21 -30 5 0 9 -9 9 -20 0 -11 4 -20 9 -20 5 0 11 -8
14 -17 6 -18 37 -73 47 -83 10 -10 41 -65 47 -82 3 -10 9 -18 14 -18 5 0 9 -9
9 -20 0 -11 4 -20 9 -20 5 0 11 -8 14 -17 6 -18 37 -73 47 -83 10 -10 41 -65
47 -82 3 -10 9 -18 14 -18 5 0 9 -7 9 -15 0 -9 9 -25 20 -37 11 -12 20 -28 20
-35 0 -7 5 -13 10 -13 6 0 10 -9 10 -20 0 -11 4 -20 9 -20 5 0 11 -8 14 -18 4
-9 18 -37 32 -61 28 -46 36 -102 17 -109 -7 -2 -12 -10 -12 -18 0 -8 -4 -14
-8 -14 -5 0 -14 -16 -22 -35 -8 -19 -17 -35 -20 -35 -3 0 -12 -16 -20 -35 -8
-19 -17 -35 -22 -35 -4 0 -8 -7 -8 -15 0 -8 -4 -15 -8 -15 -5 0 -14 -16 -22
-35 -8 -19 -17 -35 -20 -35 -3 0 -12 -16 -20 -35 -8 -19 -17 -35 -22 -35 -4 0
-8 -7 -8 -15 0 -17 -2 -18 -24 -9 -9 3 -16 12 -16 20 0 8 -4 14 -8 14 -5 0
-14 16 -22 35 -8 19 -17 35 -20 35 -3 0 -12 16 -20 35 -8 19 -17 35 -22 35 -4
0 -8 7 -8 15 0 8 -4 15 -8 15 -5 0 -14 16 -22 35 -8 19 -16 35 -19 35 -4 0
-12 15 -20 33 -8 17 -17 34 -20 37 -10 8 -42 64 -48 83 -3 9 -8 17 -12 17 -4
0 -13 16 -21 35 -8 19 -17 35 -22 35 -4 0 -8 9 -8 20 0 11 -4 20 -10 20 -5 0
-10 7 -10 15 0 8 -4 15 -10 15 -5 0 -10 7 -10 15 0 8 -4 15 -10 15 -5 0 -10 9
-10 20 0 11 -4 20 -9 20 -5 0 -11 8 -14 18 -6 17 -37 72 -47 82 -10 10 -41 65
-47 83 -3 9 -9 17 -14 17 -5 0 -9 9 -9 20 0 11 -4 20 -9 20 -5 0 -11 8 -14 18
-6 17 -37 72 -47 82 -10 10 -41 65 -47 83 -3 9 -9 17 -14 17 -5 0 -9 9 -9 20
0 11 -4 20 -10 20 -5 0 -10 6 -10 13 0 7 -9 23 -20 35 -11 12 -20 28 -20 37 0
8 -4 15 -9 15 -5 0 -11 8 -14 18 -8 23 -40 76 -49 80 -5 2 -8 10 -8 18 0 8 -9
24 -20 36 -11 12 -20 28 -20 35 0 7 -4 13 -10 13 -5 0 -10 9 -10 20 0 11 -4
20 -9 20 -5 0 -11 8 -14 18 -8 23 -40 76 -49 80 -5 2 -8 10 -8 18 0 8 -9 24
-20 36 -11 12 -20 28 -20 35 0 7 -4 13 -10 13 -5 0 -10 9 -10 20 0 11 -4 20
-9 20 -5 0 -11 8 -14 18 -6 17 -37 72 -47 82 -10 10 -41 65 -47 83 -3 9 -9 17
-14 17 -5 0 -9 9 -9 20 0 11 -4 20 -10 20 -5 0 -10 6 -10 13 0 7 -9 23 -20 35
-11 12 -20 28 -20 37 0 8 -4 15 -8 15 -5 0 -14 16 -22 35 -8 19 -17 35 -20 35
-3 0 -12 16 -20 35 -8 19 -17 35 -22 35 -4 0 -8 7 -8 15 0 8 -4 15 -8 15 -5 0
-14 16 -22 35 -8 19 -17 35 -20 35 -3 0 -12 16 -20 35 -8 19 -17 35 -22 35 -4
0 -8 7 -8 15 0 8 -4 15 -8 15 -5 0 -14 16 -22 35 -8 19 -17 35 -20 35 -3 0
-12 16 -20 35 -8 19 -16 35 -19 35 -4 0 -12 15 -20 33 -8 17 -17 34 -20 37
-10 8 -42 64 -48 83 -3 9 -9 17 -14 17 -5 0 -9 9 -9 20 0 11 -4 20 -10 20 -5
0 -10 6 -10 13 0 7 -9 23 -20 35 -11 12 -20 28 -20 37 0 8 -4 15 -10 15 -5 0
-10 6 -10 13 0 6 -9 23 -20 37 -29 37 -29 167 0 198 20 21 27 22 269 22 l248
0 -1 -122z m2908 77 c3 -19 9 -50 12 -69 3 -20 1 -36 -5 -40 -6 -4 -11 -18
-11 -32 0 -13 -4 -24 -10 -24 -5 0 -10 -9 -10 -20 0 -11 -4 -20 -9 -20 -5 0
-11 -8 -14 -17 -6 -18 -37 -73 -47 -83 -10 -10 -41 -65 -47 -82 -3 -10 -9 -18
-14 -18 -5 0 -9 -9 -9 -20 0 -11 -4 -20 -9 -20 -5 0 -11 -8 -14 -17 -4 -10
-20 -40 -37 -68 -17 -27 -33 -58 -37 -67 -3 -10 -8 -18 -12 -18 -4 0 -13 -16
-21 -35 -8 -19 -17 -35 -21 -35 -4 0 -9 -8 -12 -17 -6 -18 -37 -73 -47 -83 -3
-3 -12 -18 -20 -35 -8 -16 -17 -32 -20 -35 -3 -3 -11 -15 -17 -27 -7 -13 -19
-33 -25 -45 -7 -13 -15 -25 -18 -28 -3 -3 -12 -18 -20 -35 -8 -16 -17 -32 -20
-35 -3 -3 -12 -18 -20 -35 -8 -16 -17 -32 -20 -35 -10 -10 -41 -65 -47 -82 -3
-10 -9 -18 -14 -18 -5 0 -9 -9 -9 -20 0 -11 -4 -20 -9 -20 -5 0 -11 -8 -14
-17 -6 -18 -37 -73 -47 -83 -10 -10 -41 -65 -47 -82 -3 -10 -8 -18 -12 -18 -4
0 -13 -16 -21 -35 -8 -19 -17 -35 -22 -35 -4 0 -8 -7 -8 -15 0 -8 -4 -15 -10
-15 -5 0 -10 -9 -10 -20 0 -11 -4 -20 -9 -20 -5 0 -11 -8 -14 -17 -8 -24 -40
-77 -49 -81 -5 -2 -8 -10 -8 -18 0 -8 -9 -24 -20 -36 -11 -12 -20 -28 -20 -35
0 -7 -4 -13 -10 -13 -5 0 -10 -9 -10 -20 0 -11 -4 -20 -9 -20 -5 0 -11 -8 -14
-17 -6 -18 -37 -73 -47 -83 -10 -10 -41 -65 -47 -82 -3 -10 -9 -18 -14 -18 -5
0 -9 -9 -9 -20 0 -11 -3 -20 -8 -20 -4 0 -18 -21 -32 -47 -13 -27 -27 -50 -30
-53 -10 -9 -41 -65 -47 -82 -3 -10 -9 -18 -14 -18 -5 0 -9 -9 -9 -20 0 -11 -4
-20 -10 -20 -5 0 -10 -6 -10 -13 0 -7 -9 -23 -20 -35 -11 -12 -20 -28 -20 -37
0 -8 -3 -15 -8 -15 -4 0 -13 -14 -20 -30 -17 -38 -27 -38 -44 0 -7 16 -16 30
-20 30 -5 0 -8 9 -8 20 0 11 -4 20 -9 20 -5 0 -11 8 -14 18 -6 17 -37 72 -47
82 -10 10 -41 65 -47 83 -3 9 -9 17 -14 17 -5 0 -9 9 -9 20 0 11 -4 20 -9 20
-5 0 -14 14 -21 30 -7 17 -16 30 -21 30 -5 0 -9 9 -9 20 0 11 -4 20 -9 20 -5
0 -11 8 -14 17 -8 24 -40 77 -49 81 -5 2 -8 10 -8 18 0 8 -9 24 -20 36 -11 12
-20 28 -20 35 0 7 -4 13 -10 13 -5 0 -10 9 -10 20 0 11 -4 20 -9 20 -5 0 -11
8 -14 18 -6 17 -37 72 -47 82 -10 10 -41 65 -47 83 -3 9 -9 17 -14 17 -5 0 -9
9 -9 20 0 11 -4 20 -9 20 -5 0 -11 8 -14 18 -6 17 -37 72 -47 82 -10 10 -41
65 -47 83 -3 9 -9 17 -14 17 -5 0 -9 9 -9 20 0 11 -4 20 -10 20 -5 0 -10 7
-10 15 0 8 -4 15 -10 15 -5 0 -10 7 -10 15 0 8 -4 15 -10 15 -5 0 -10 9 -10
20 0 11 -4 20 -9 20 -5 0 -11 8 -14 18 -6 18 -38 74 -48 82 -3 3 -12 20 -20
38 -8 17 -16 32 -20 32 -3 0 -11 16 -19 35 -8 19 -17 35 -20 35 -3 0 -12 16
-20 35 -8 19 -17 35 -22 35 -4 0 -8 7 -8 15 0 8 -4 15 -8 15 -5 0 -14 16 -22
35 -8 19 -17 35 -20 35 -3 0 -12 16 -20 35 -8 19 -17 35 -22 35 -4 0 -8 7 -8
15 0 8 -4 15 -8 15 -5 0 -14 16 -22 35 -8 19 -17 35 -20 35 -3 0 -12 16 -20
35 -8 19 -17 35 -22 35 -4 0 -8 9 -8 20 0 11 -4 20 -10 20 -5 0 -10 7 -10 15
0 8 -4 15 -10 15 -5 0 -10 7 -10 15 0 8 -4 15 -10 15 -5 0 -10 9 -10 20 0 11
-4 20 -9 20 -5 0 -11 8 -14 18 -6 17 -37 72 -47 82 -10 10 -41 65 -47 83 -3 9
-9 17 -14 17 -5 0 -9 9 -9 20 0 11 -4 20 -10 20 -5 0 -10 9 -10 21 0 11 -5 29
-11 40 -7 13 -7 30 -1 52 6 18 13 44 16 60 l6 27 1344 0 1344 0 6 -35z m722
21 c24 -24 19 -145 -8 -198 -13 -23 -26 -44 -30 -46 -5 -2 -8 -12 -8 -23 0
-10 -4 -19 -10 -19 -5 0 -10 -6 -10 -13 0 -7 -9 -23 -20 -35 -11 -12 -20 -28
-20 -37 0 -8 -4 -15 -9 -15 -5 0 -11 -8 -14 -17 -6 -19 -38 -75 -48 -83 -3 -3
-12 -20 -20 -37 -8 -18 -16 -33 -20 -33 -3 0 -11 -16 -19 -35 -8 -19 -17 -35
-20 -35 -3 0 -12 -16 -20 -35 -8 -19 -17 -35 -21 -35 -4 0 -9 -8 -12 -17 -6
-18 -37 -73 -47 -83 -3 -3 -12 -18 -20 -35 -8 -16 -17 -32 -20 -35 -10 -10
-41 -65 -47 -82 -3 -10 -8 -18 -12 -18 -4 0 -13 -16 -21 -35 -8 -19 -17 -35
-22 -35 -4 0 -8 -9 -8 -20 0 -11 -4 -20 -9 -20 -5 0 -11 -8 -14 -17 -6 -18
-37 -73 -47 -83 -5 -5 -18 -27 -44 -75 -6 -11 -13 -22 -16 -25 -10 -10 -41
-65 -47 -82 -3 -10 -9 -18 -14 -18 -5 0 -9 -9 -9 -20 0 -11 -4 -20 -9 -20 -5
0 -11 -8 -14 -17 -6 -18 -37 -73 -47 -83 -10 -10 -41 -65 -47 -82 -3 -10 -9
-18 -14 -18 -5 0 -9 -9 -9 -20 0 -11 -4 -20 -9 -20 -5 0 -11 -8 -14 -17 -6
-18 -37 -73 -47 -83 -10 -10 -41 -65 -47 -82 -3 -10 -9 -18 -14 -18 -5 0 -9
-9 -9 -20 0 -11 -4 -20 -9 -20 -5 0 -14 -13 -21 -30 -7 -16 -16 -30 -21 -30
-5 0 -9 -9 -9 -20 0 -11 -4 -20 -9 -20 -5 0 -11 -8 -14 -17 -8 -24 -40 -77
-49 -81 -5 -2 -8 -12 -8 -23 0 -10 -4 -19 -10 -19 -5 0 -10 -7 -10 -15 0 -8
-4 -15 -10 -15 -5 0 -10 -7 -10 -15 0 -8 -4 -15 -10 -15 -5 0 -10 -9 -10 -20
0 -11 -4 -20 -9 -20 -5 0 -11 -8 -14 -17 -6 -18 -37 -73 -47 -83 -10 -10 -41
-65 -47 -82 -3 -10 -9 -18 -14 -18 -5 0 -9 -9 -9 -20 0 -11 -4 -20 -10 -20 -5
0 -10 -6 -10 -13 0 -7 -9 -23 -20 -35 -11 -12 -20 -28 -20 -37 0 -8 -4 -15 -8
-15 -5 0 -14 -16 -22 -35 -8 -19 -17 -35 -20 -35 -3 0 -12 -16 -20 -35 -8 -19
-17 -35 -22 -35 -4 0 -8 -7 -8 -15 0 -8 -4 -15 -8 -15 -5 0 -14 -16 -22 -35
-8 -19 -17 -35 -20 -35 -3 0 -12 -16 -20 -35 -8 -19 -17 -35 -21 -35 -4 0 -9
-8 -12 -17 -6 -19 -38 -75 -48 -83 -3 -3 -12 -20 -20 -38 -8 -17 -17 -32 -21
-32 -5 0 -8 -7 -8 -15 0 -8 -2 -15 -4 -15 -2 0 -11 -3 -20 -6 -11 -4 -16 -1
-16 10 0 9 -4 16 -8 16 -5 0 -14 16 -22 35 -8 19 -17 35 -20 35 -3 0 -12 16
-20 35 -8 19 -17 35 -21 35 -4 0 -9 8 -12 18 -6 17 -37 72 -47 82 -3 3 -12 19
-20 35 -8 17 -17 32 -20 35 -33 33 -38 86 -11 133 11 19 25 45 33 58 7 13 15
26 18 29 10 10 41 65 47 83 3 9 9 17 14 17 5 0 9 9 9 20 0 11 4 20 9 20 5 0
11 8 14 18 6 17 37 72 47 82 3 3 11 15 18 28 6 12 18 32 25 45 6 12 14 24 17
27 10 10 41 65 47 83 3 9 9 17 14 17 5 0 9 9 9 20 0 11 4 20 9 20 5 0 11 8 14
17 8 24 40 77 50 81 4 2 7 10 7 18 0 8 9 24 20 36 11 12 20 28 20 35 0 7 5 13
10 13 6 0 10 9 10 20 0 11 5 20 10 20 6 0 10 6 10 13 0 7 9 23 20 35 11 12 20
28 20 37 0 8 4 15 9 15 5 0 11 8 14 18 8 23 40 76 50 80 4 2 7 12 7 23 0 10 5
19 10 19 6 0 10 6 10 13 0 7 9 23 20 35 11 12 20 28 20 37 0 8 4 15 9 15 5 0
11 8 14 18 6 17 37 72 47 82 10 10 41 65 47 83 3 9 9 17 14 17 5 0 9 9 9 20 0
11 5 20 10 20 6 0 10 6 10 13 0 7 9 23 20 35 11 12 20 28 20 37 0 8 3 15 8 15
4 0 12 10 18 23 30 60 60 112 67 115 4 2 7 10 7 18 0 8 4 14 8 14 5 0 14 16
22 35 8 19 16 35 19 35 4 0 12 15 20 33 8 17 17 34 20 37 10 8 42 64 48 83 3
9 8 17 12 17 4 0 13 16 21 35 8 19 17 35 22 35 4 0 8 7 8 15 0 8 4 15 8 15 5
0 14 16 22 35 8 19 17 35 20 35 3 0 12 16 20 35 8 19 17 35 22 35 4 0 8 9 8
20 0 11 5 20 10 20 6 0 10 7 10 15 0 8 5 15 10 15 6 0 10 7 10 15 0 8 5 15 10
15 6 0 10 9 10 19 0 11 3 21 8 23 10 4 52 87 52 103 0 7 5 15 12 17 8 3 12 39
11 121 l0 117 254 0 c207 0 257 -3 269 -14z m742 -26 c15 -50 15 -104 0 -133
-6 -12 -15 -30 -20 -39 -13 -28 -32 -62 -38 -68 -10 -10 -41 -65 -47 -82 -3
-10 -9 -18 -14 -18 -5 0 -9 -9 -9 -20 0 -11 -4 -20 -9 -20 -5 0 -11 -8 -14
-17 -6 -18 -37 -73 -47 -83 -3 -3 -12 -18 -20 -35 -8 -16 -17 -32 -20 -35 -3
-3 -12 -18 -20 -35 -8 -16 -17 -32 -20 -35 -3 -3 -11 -15 -17 -27 -7 -13 -19
-33 -25 -45 -7 -13 -15 -25 -18 -28 -3 -3 -12 -18 -20 -35 -8 -16 -17 -32 -20
-35 -10 -10 -41 -65 -47 -82 -3 -10 -8 -18 -12 -18 -4 0 -13 -16 -21 -35 -8
-19 -17 -35 -21 -35 -4 0 -9 -8 -12 -17 -4 -10 -20 -40 -37 -68 -17 -27 -33
-58 -37 -67 -3 -10 -9 -18 -14 -18 -5 0 -9 -9 -9 -20 0 -11 -4 -20 -9 -20 -5
0 -11 -8 -14 -17 -6 -18 -37 -73 -47 -83 -5 -5 -18 -27 -44 -75 -6 -11 -13
-22 -16 -25 -10 -10 -41 -65 -47 -82 -3 -10 -9 -18 -14 -18 -5 0 -9 -9 -9 -20
0 -11 -4 -20 -9 -20 -5 0 -11 -8 -14 -17 -8 -24 -40 -77 -49 -81 -5 -2 -8 -10
-8 -18 0 -8 -9 -24 -20 -36 -11 -12 -20 -28 -20 -35 0 -7 -4 -13 -10 -13 -5 0
-10 -9 -10 -20 0 -11 -4 -20 -9 -20 -5 0 -11 -8 -14 -17 -6 -18 -37 -73 -47
-83 -10 -10 -41 -65 -47 -82 -3 -10 -9 -18 -14 -18 -5 0 -9 -9 -9 -20 0 -11
-4 -20 -9 -20 -5 0 -14 -13 -21 -30 -7 -16 -16 -30 -21 -30 -5 0 -9 -9 -9 -20
0 -11 -4 -20 -9 -20 -5 0 -11 -8 -14 -17 -8 -24 -40 -77 -49 -81 -5 -2 -8 -10
-8 -18 0 -8 -9 -24 -20 -36 -11 -12 -20 -28 -20 -35 0 -7 -4 -13 -10 -13 -5 0
-10 -9 -10 -20 0 -11 -4 -20 -9 -20 -5 0 -11 -8 -14 -17 -6 -18 -37 -73 -47
-83 -10 -10 -41 -65 -47 -82 -3 -10 -9 -18 -14 -18 -5 0 -9 -9 -9 -20 0 -11
-4 -20 -9 -20 -5 0 -11 -8 -14 -17 -6 -19 -38 -75 -48 -83 -3 -3 -12 -20 -20
-37 -8 -18 -16 -33 -20 -33 -3 0 -11 -16 -19 -35 -8 -19 -17 -35 -22 -35 -4 0
-8 -7 -8 -15 0 -8 -4 -15 -8 -15 -5 0 -14 -16 -22 -35 -8 -19 -17 -35 -21 -35
-4 0 -9 -8 -12 -18 -4 -9 -20 -39 -37 -67 -17 -27 -33 -57 -37 -65 -4 -8 -9
-17 -12 -20 -3 -3 -15 -23 -27 -45 -27 -52 -48 -89 -54 -95 -10 -10 -41 -65
-47 -83 -3 -9 -9 -17 -14 -17 -5 0 -9 -9 -9 -20 0 -11 -4 -20 -10 -20 -5 0
-10 -6 -10 -13 0 -7 -9 -23 -20 -35 -11 -12 -20 -28 -20 -37 0 -8 -4 -15 -9
-15 -5 0 -11 -8 -14 -18 -6 -17 -37 -72 -47 -82 -10 -10 -41 -65 -47 -82 -3
-10 -9 -18 -14 -18 -5 0 -9 -9 -9 -20 0 -23 -7 -25 -23 -7 -11 12 -18 23 -49
79 -7 13 -15 25 -18 28 -10 10 -41 65 -47 83 -3 9 -9 17 -14 17 -5 0 -9 9 -9
20 0 11 -4 20 -9 20 -5 0 -11 8 -14 18 -6 17 -37 72 -47 82 -24 24 -39 80 -21
80 5 0 11 8 14 18 8 23 40 76 50 80 4 2 7 12 7 23 0 10 4 19 9 19 5 0 11 8 14
17 6 19 38 75 48 83 3 3 12 20 20 37 8 18 16 33 20 33 3 0 11 16 19 35 8 19
17 35 22 35 4 0 8 7 8 15 0 8 3 15 8 15 4 0 13 15 21 32 8 18 17 35 20 38 10
8 42 64 48 83 3 9 8 17 12 17 4 0 13 16 21 35 8 19 17 35 22 35 4 0 8 9 8 20
0 11 4 20 9 20 5 0 11 8 14 18 6 17 37 72 47 82 3 3 10 14 16 25 26 48 39 70
44 75 10 10 41 65 47 83 3 9 9 17 14 17 5 0 9 9 9 20 0 11 4 20 9 20 5 0 11 8
14 18 6 17 37 72 47 82 10 10 41 65 47 83 3 9 9 17 14 17 5 0 9 9 9 20 0 11 5
20 10 20 6 0 10 6 10 13 0 7 9 23 20 35 11 12 20 28 20 37 0 8 4 15 9 15 5 0
11 8 14 18 8 23 40 76 50 80 4 2 7 10 7 18 0 8 9 24 20 36 11 12 20 28 20 35
0 7 5 13 10 13 6 0 10 9 10 20 0 11 5 20 10 20 6 0 10 6 10 13 0 7 9 23 20 35
11 12 20 28 20 37 0 8 5 15 10 15 6 0 10 7 10 15 0 9 9 25 20 37 11 12 20 28
20 35 0 7 5 13 10 13 6 0 10 9 10 20 0 11 4 20 9 20 5 0 11 8 14 18 6 17 37
72 47 82 10 10 41 65 47 83 3 9 9 17 14 17 5 0 9 7 9 15 0 9 9 25 20 37 11 12
20 28 20 35 0 7 5 13 10 13 6 0 10 9 10 20 0 11 4 20 9 20 5 0 11 8 14 18 6
18 38 74 48 82 3 3 12 20 20 38 8 17 16 32 20 32 3 0 11 16 19 35 8 19 17 35
22 35 4 0 8 7 8 15 0 8 4 15 8 15 5 0 14 16 22 35 8 19 17 35 21 35 4 0 9 8
12 18 4 9 20 40 37 67 17 28 33 57 37 65 4 8 9 17 12 20 3 3 15 23 27 45 27
52 48 89 54 95 10 10 41 65 47 83 3 9 9 17 14 17 5 0 9 9 9 20 0 11 5 20 10
20 6 0 10 9 10 20 0 11 3 20 8 20 17 0 32 86 32 180 l0 100 258 0 257 0 13
-40z m-2808 -2875 c0 -8 4 -15 9 -15 5 0 11 -8 14 -17 6 -18 37 -73 47 -83 3
-3 12 -18 20 -35 8 -16 17 -32 20 -35 3 -3 17 -26 30 -52 14 -27 28 -48 32
-48 5 0 8 -9 8 -20 0 -11 4 -20 9 -20 5 0 11 -8 14 -17 3 -10 14 -31 24 -46
11 -17 14 -30 8 -35 -12 -9 -44 -61 -52 -84 -3 -10 -9 -18 -14 -18 -5 0 -9 -9
-9 -20 0 -11 -4 -20 -9 -20 -5 0 -11 -8 -14 -17 -6 -18 -37 -73 -47 -83 -10
-10 -41 -65 -47 -82 -3 -10 -9 -18 -14 -18 -5 0 -9 -7 -9 -16 0 -8 -7 -22 -15
-30 -13 -14 -17 -14 -30 0 -8 8 -15 22 -15 30 0 9 -4 16 -9 16 -5 0 -11 8 -14
18 -8 23 -40 76 -49 80 -5 2 -8 12 -8 23 0 10 -4 19 -10 19 -5 0 -10 7 -10 15
0 8 -4 15 -10 15 -5 0 -10 7 -10 15 0 8 -4 15 -10 15 -5 0 -10 9 -10 20 0 11
-4 20 -9 20 -5 0 -11 8 -14 18 -8 23 -40 75 -52 84 -6 5 -5 16 4 30 8 13 19
32 25 43 6 11 13 22 16 25 6 6 27 43 54 95 12 22 23 42 26 45 10 10 41 65 47
83 3 9 8 17 12 17 4 0 13 16 21 35 8 19 17 35 22 35 4 0 8 7 8 15 0 8 5 15 10
15 6 0 10 -7 10 -15z"/>
</g>
</svg>
